<?xml version="1.0" encoding="utf-8"?>
<!-- Generator: Adobe Illustrator 25.4.1, SVG Export Plug-In . SVG Version: 6.00 Build 0)  -->
<svg version="1.1" id="Layer_1" xmlns="http://www.w3.org/2000/svg" xmlns:xlink="http://www.w3.org/1999/xlink" x="0px" y="0px"
	 viewBox="0 0 572 95.1" style="enable-background:new 0 0 572 95.1;" xml:space="preserve">
<style type="text/css">
	.st0{fill:#FFFFFF;}
	.st1{fill:#FFE285;}
	.st2{fill:#FFA9A6;}
	.st3{fill:#8EDAB4;}
	.st4{fill:#A1CBFB;}
	.st5{fill:#80868B;}
	.st6{fill:#666C73;}
	.st7{fill:#FF281F;}
	.st8{fill:#0080FC;}
	.st9{fill:#FFB800;}
	.st10{fill:#009E49;}
</style>
<g>
	<g>
		<path d="M48.6,69.6l-10.5,5.7L34.8,68c-3.5,4.3-8.7,7.4-15.3,7.4C6.7,75.3,0,64.8,0,48.4c0-17.7,7.9-27.3,20.4-27.3
			c5.9,0,10.5,2.2,13.5,6.3V1.3h10.8v60.4L48.6,69.6z M33.9,62.5V34.7c-2.8-2.3-6.3-3.7-10-3.7c-8,0-12.7,6.1-12.7,17.5
			c0,11,4.4,17,12.5,17C27.3,65.6,31,64.4,33.9,62.5z"/>
		<path d="M102,49.4H66.8c0.7,9.1,7.8,15.1,18.9,15.1c5.7,0,11.9-1.2,16-3.4l-3.4,11.1c-3.5,1.9-9.4,3.1-16.1,3.1
			c-16,0-26.6-10.9-26.6-27.4c0-16.6,10.1-26.8,26.1-26.8c13.3,0,21.6,7.6,21.6,19.8C103.3,43.7,102.8,47,102,49.4z M67.4,41.9h25.4
			c-0.5-7.8-4.2-11.5-11.1-11.5C74.2,30.5,69,34.8,67.4,41.9z"/>
		<path d="M128.2,74l-20.3-51.6h11.9L133,58.5l1.5,4.5h0.4l1.5-4.5l13.2-36.1h11.7L141,74H128.2z"/>
		<path d="M196.5,22.5h23.3l-1.5,8.3H195l-8.2,46.4c-2.3,13-11,17.8-23.1,17.8c-5.6,0-8.2-0.8-11-1.4l-0.2-8.4
			c2.8,0.5,6.1,0.8,10.7,0.8c7.3,0,12.1-2.9,13.2-9l8.2-46.3h-16.2l1.5-8.3H186l0.8-4.8C189.1,4.9,197.7,0,209.7,0
			c5.7,0,8.6,0.8,11.1,1.4L221,10c-2.8-0.7-6.1-1-10.7-1c-7.2,0-12,2.9-13.1,9L196.5,22.5z"/>
		<path d="M267.9,49.4h-35.3c0.7,9.1,7.8,15.1,18.9,15.1c5.7,0,11.9-1.2,16-3.4l-3.4,11.1c-3.5,1.9-9.4,3.1-16.1,3.1
			c-16,0-26.6-10.9-26.6-27.4c0-16.6,10.1-26.8,26.1-26.8c13.3,0,21.6,7.6,21.6,19.8C269.2,43.7,268.7,47,267.9,49.4z M233.2,41.9
			h25.4c-0.5-7.8-4.2-11.5-11.1-11.5C240.1,30.5,234.9,34.8,233.2,41.9z"/>
		<path d="M279.5,70.9l-0.7-11.6c4.6,3.2,13,6,21.7,6c6.7,0,11.5-2.1,11.5-6.8c0-9.8-32.1-0.7-32.1-20.6c0-9.3,7-17.1,23.6-17.1
			c10.2,0,17.9,2.5,17.9,8.7c0,1.9-0.8,3.5-1.6,5c-4.4-2.1-11.3-3.6-17-3.6c-8,0-12.2,3-12.2,6.3c0,8.7,32.5,1.1,32.5,20.5
			c0,10.9-9.6,17.6-23.8,17.6C289.6,75.3,282.4,72.2,279.5,70.9z"/>
		<path d="M378.6,63.1l-2.2,10.1c-2.6,1.1-7.8,2.2-12.6,2.2c-12.9,0-18.3-6.7-18.3-16.1V31.5h-14.6v-9.1h14.6V8.3h10.8v14.1h20.8
			v9.1h-20.8v24.4c0,6.7,3.5,9.7,9.6,9.7C369.3,65.6,375.7,64.8,378.6,63.1z"/>
	</g>
	<g>
		<path class="st5" d="M435,69V74h-35.2v-5.3c15.6-13.1,26-20.7,26-31.1c0-7.4-5-10.8-11.8-10.8c-5.3,0-9.9,2.3-12.3,4.2
			c-0.8-0.5-1.8-1.6-1.8-3.1c0-3.9,6.7-6.8,14.4-6.8c10.7,0,17.5,5.6,17.5,15.9c0,12.8-10.6,20.8-24.8,31.9H435z"/>
		<path class="st5" d="M443.7,48.1c0-17.7,7.3-26.9,19.2-26.9c11.8,0,19.2,9.2,19.2,26.9S474.8,75,463,75
			C451,75,443.7,65.8,443.7,48.1z M476,48.1c0-14.2-4.6-21.2-13-21.2c-8.5,0-13.1,7.1-13.1,21.2c0,14.2,4.6,21.3,13.1,21.3
			C471.4,69.4,476,62.3,476,48.1z M458.8,52v-8.1h8.2V52H458.8z"/>
		<path class="st5" d="M526.4,69V74h-35.2v-5.3c15.6-13.1,26-20.7,26-31.1c0-7.4-5-10.8-11.8-10.8c-5.3,0-9.9,2.3-12.3,4.2
			c-0.8-0.5-1.8-1.6-1.8-3.1c0-3.9,6.7-6.8,14.4-6.8c10.7,0,17.5,5.6,17.5,15.9c0,12.8-10.6,20.8-24.8,31.9H526.4z"/>
		<path class="st5" d="M572,69V74h-35.2v-5.3c15.6-13.1,26-20.7,26-31.1c0-7.4-5-10.8-11.8-10.8c-5.3,0-9.9,2.3-12.3,4.2
			c-0.8-0.5-1.8-1.6-1.8-3.1c0-3.9,6.7-6.8,14.4-6.8c10.7,0,17.5,5.6,17.5,15.9c0,12.8-10.6,20.8-24.8,31.9H572z"/>
	</g>
</g>
</svg>
